<svg width="52" height="52" viewBox="0 0 52 52" fill="none" xmlns="http://www.w3.org/2000/svg">
<path d="M30.55 45.6C27.1 45.78 27.35 45.24 27.25 44.92C27.16 44.6 27.22 42.96 27.22 42.96L24.97 42.91C24.97 42.91 25.72 45.55 24.8 45.8C23.88 46.05 21.26 46.14 21.26 47.07C21.26 47.77 21.66 47.95 22.19 47.77C22.19 47.77 24.49 46.58 25.9 46.69C27.31 46.8 31.47 47.77 32.97 47.77C34.07 47.77 34.25 47.43 34.25 46.69C34.25 45.88 32.54 45.5 30.54 45.61L30.55 45.6Z" fill="#F1A06B"/>
<path d="M43.37 32.93C39.22 41.24 31.69 43.22 25.56 43.77C18.33 44.42 11.26 41.16 7 35.94C4.7 33.12 3.21 29.73 2.98 26.08C2.78 23.04 4.88 24.51 8.85 24.57C10.87 24.59 12.72 23.96 14.56 23.19C16.61 22.33 18.65 21.3 20.89 20.82C22.43 20.49 24.61 20.5 26.14 20.56C33.64 21.56 42.45 25.15 43.37 32.93Z" fill="#454545"/>
<path d="M42.03 35.2397C41.97 35.3997 41.92 35.5597 41.86 35.6997C38.32 40.8897 31.97 43.4497 25.51 43.4397C14.34 43.3997 4.36999 34.1797 4.64999 23.7397C4.73999 20.6797 6.67999 22.3597 10.64 22.7797C14.87 23.2297 18.65 20.6697 22.98 20.1497C25.11 19.8897 28.37 20.3897 29.58 20.5597C29.8 20.5897 30.01 20.5897 30.21 20.5597C33.73 21.1697 44.75 28.1597 42.03 35.2397Z" fill="#EDEDED"/>
<path d="M35.87 36.7303C30.51 41.4303 21.51 41.5903 15.95 37.3603C13.01 35.2603 10.73 32.1903 9.63997 28.5603C9.56997 28.3203 9.44997 27.9303 9.66997 28.0903C10.61 29.1403 11.81 30.4203 13.02 31.1903C13.14 31.2303 13.32 31.3203 13.34 31.1203C13.22 29.8703 12.98 28.2803 13.12 27.0003C13.18 26.6003 13.3 26.9403 13.43 27.2803C16.43 36.0803 27.24 40.7803 35.86 36.7303V36.7503L35.87 36.7303Z" fill="#454545"/>
<path d="M43.75 17.1596C40.46 18.2696 40.75 20.4496 32.14 19.1196C32.39 18.6696 32.53 18.1596 32.58 17.6196C32.72 16.0996 32.03 14.6496 31.66 13.2496C29.87 6.26955 36.96 2.92955 40.92 7.58955C42.46 9.39955 43.84 13.3396 43.75 17.1596Z" fill="#035731"/>
<path d="M40.89 11.33C41.04 11.69 41.44 11.97 41.76 12.07C43.09 12.48 45.62 11.48 46.2 10.68C46.56 10.19 46.77 9.63 46.33 9.22C45.83 8.76 43.19 9.19 42.47 9.01C42.18 8.94 41.85 8.67 41.64 8.72C41.24 8.8 40.93 9.5 40.79 10.03C40.68 10.45 40.7 10.84 40.89 11.33Z" fill="#F1A06B"/>
<path d="M43.75 17.16C43.72 17.48 43.68 17.82 43.64 18.16C40.24 19.24 40.77 21.52 31.5 19.96C31.76 19.73 31.97 19.44 32.13 19.12C40.74 20.45 40.46 18.27 43.74 17.16H43.75Z" fill="#EDEDED"/>
<path d="M43.12 33.4704C43.09 33.5504 43.04 33.6304 43.01 33.7104C42.68 34.4204 42.29 35.0804 41.86 35.7104C41.92 35.5704 41.97 35.4104 42.03 35.2504C44.75 28.1704 33.73 21.1804 30.21 20.5704C30.65 20.5204 31.05 20.3404 31.38 20.0504C31.42 20.0304 31.47 19.9904 31.5 19.9504C40.76 21.5204 40.24 19.2304 43.64 18.1504C45.39 24.4304 44.96 29.5304 43.11 33.4604L43.12 33.4704Z" fill="#923000"/>
<path d="M38.72 9.90973C39.1176 9.90973 39.44 9.58737 39.44 9.18973C39.44 8.79208 39.1176 8.46973 38.72 8.46973C38.3224 8.46973 38 8.79208 38 9.18973C38 9.58737 38.3224 9.90973 38.72 9.90973Z" fill="#1E1E1E"/>
</svg>
