<svg width="25" height="18" viewBox="0 0 25 18" fill="none" xmlns="http://www.w3.org/2000/svg">
<g clip-path="url(#clip0_149_21476)">
<path d="M24.2325 2.69264C23.9513 1.63538 23.1075 0.800701 22.05 0.511346C20.115 -0.0117188 12.375 -0.0117187 12.375 -0.0117187C12.375 -0.0117187 4.635 -0.0117188 2.7 0.500217C1.63125 0.789572 0.79875 1.62425 0.5175 2.68151C0 4.60683 0 8.61328 0 8.61328C0 8.61328 0 12.6197 0.5175 14.5451C0.79875 15.6023 1.6425 16.437 2.7 16.7263C4.635 17.2383 12.375 17.2383 12.375 17.2383C12.375 17.2383 20.115 17.2383 22.05 16.7263C23.1188 16.437 23.9513 15.6023 24.2325 14.5451C24.75 12.6197 24.75 8.61328 24.75 8.61328C24.75 8.61328 24.75 4.60683 24.2438 2.68151L24.2325 2.69264ZM9.84375 12.2636V4.98522L16.3125 8.62441L9.84375 12.2636Z" fill="#3C3535" fill-opacity="0.75"/>
</g>
<defs>
<clipPath id="clip0_149_21476">
<rect width="24.75" height="17.25" fill="white"/>
</clipPath>
</defs>
</svg>
